<svg xmlns="http://www.w3.org/2000/svg" xmlns:xlink="http://www.w3.org/1999/xlink" width="250" zoomAndPan="magnify" viewBox="0 0 187.5 187.499992" height="250" preserveAspectRatio="xMidYMid meet" version="1.0"><defs><clipPath id="c240e1b0ae"><path d="M 65 0 L 152 0 L 152 121 L 65 121 Z M 65 0 " clip-rule="nonzero"/></clipPath><clipPath id="43c03ce611"><path d="M 85 0 L 89 0 L 89 67 L 85 67 Z M 85 0 " clip-rule="nonzero"/></clipPath><clipPath id="661ef69ae7"><path d="M 1 0 L 108 0 L 108 87 L 1 87 Z M 1 0 " clip-rule="nonzero"/></clipPath><clipPath id="aba3ed9bfb"><path d="M 86 0 L 166 0 L 166 56 L 86 56 Z M 86 0 " clip-rule="nonzero"/></clipPath><clipPath id="590d9103ea"><path d="M 122 0 L 170 0 L 170 113 L 122 113 Z M 122 0 " clip-rule="nonzero"/></clipPath><clipPath id="505157011c"><path d="M 23 124 L 97 124 L 97 187 L 23 187 Z M 23 124 " clip-rule="nonzero"/></clipPath><clipPath id="f03cbddb33"><path d="M 149 76 L 187 76 L 187 132 L 149 132 Z M 149 76 " clip-rule="nonzero"/></clipPath><clipPath id="c0c3f754f5"><path d="M 152 117 L 187 117 L 187 122 L 152 122 Z M 152 117 " clip-rule="nonzero"/></clipPath><clipPath id="f5204ce63d"><path d="M 157 88 L 187 88 L 187 142 L 157 142 Z M 157 88 " clip-rule="nonzero"/></clipPath><clipPath id="3a0906320f"><path d="M 128 68 L 187 68 L 187 120 L 128 120 Z M 128 68 " clip-rule="nonzero"/></clipPath><clipPath id="4ddfc2b117"><path d="M 0 118 L 82 118 L 82 187 L 0 187 Z M 0 118 " clip-rule="nonzero"/></clipPath><clipPath id="2b417184fb"><path d="M 0 146 L 67 146 L 67 187 L 0 187 Z M 0 146 " clip-rule="nonzero"/></clipPath><clipPath id="9a0ed65abe"><path d="M 119 0 L 155 0 L 155 68 L 119 68 Z M 119 0 " clip-rule="nonzero"/></clipPath><clipPath id="7dd208272a"><path d="M 17 134 L 72 134 L 72 187 L 17 187 Z M 17 134 " clip-rule="nonzero"/></clipPath><clipPath id="0d07701e79"><path d="M 17 149 L 77 149 L 77 187 L 17 187 Z M 17 149 " clip-rule="nonzero"/></clipPath><clipPath id="51f31b78c3"><rect x="0" width="187" y="0" height="187"/></clipPath></defs><g transform="matrix(1, 0, 0, 1, 0, 0)"><g clip-path="url(#51f31b78c3)"><g clip-path="url(#c240e1b0ae)"><path stroke-linecap="butt" transform="matrix(0.335608, 0.870686, -0.870686, 0.335608, 88.624105, -14.586497)" fill="none" stroke-linejoin="miter" d="M 0.0012492 2.000391 L 129.747707 2.001493 " stroke="#ffffff" stroke-width="4" stroke-opacity="1" stroke-miterlimit="4"/></g><path stroke-linecap="butt" transform="matrix(0.599512, 0.71506, -0.71506, 0.599512, 88.317006, 63.012583)" fill="none" stroke-linejoin="miter" d="M -0.000664463 1.999676 L 48.720234 2.002107 " stroke="#ffffff" stroke-width="4" stroke-opacity="1" stroke-miterlimit="4"/><g clip-path="url(#43c03ce611)"><path stroke-linecap="butt" transform="matrix(0.00000000162861, 0.933127, -0.933127, 0.00000000162861, 88.746189, -14.382957)" fill="none" stroke-linejoin="miter" d="M 0.000154544 2.001102 L 84.234729 2.001102 " stroke="#ffffff" stroke-width="4" stroke-opacity="1" stroke-miterlimit="4"/></g><path stroke-linecap="butt" transform="matrix(0.786234, 0.502556, -0.502556, 0.786234, 45.399437, 36.589298)" fill="none" stroke-linejoin="miter" d="M 0.00109842 0.998622 L 53.406099 0.999675 " stroke="#ffffff" stroke-width="2" stroke-opacity="1" stroke-miterlimit="4"/><g clip-path="url(#661ef69ae7)"><path stroke-linecap="butt" transform="matrix(-0.580677, 0.730439, -0.730439, -0.580677, 88.339059, -13.224489)" fill="none" stroke-linejoin="miter" d="M -0.00121805 1.999976 L 109.826055 1.998974 " stroke="#ffffff" stroke-width="4" stroke-opacity="1" stroke-miterlimit="4"/></g><g clip-path="url(#aba3ed9bfb)"><path stroke-linecap="butt" transform="matrix(0.719114, -0.594643, 0.594643, 0.719114, 106.0978, 32.676679)" fill="none" stroke-linejoin="miter" d="M -0.000483503 1.997339 L 50.939033 1.999826 " stroke="#ffffff" stroke-width="4" stroke-opacity="1" stroke-miterlimit="4"/></g><path stroke-linecap="butt" transform="matrix(0.834707, 0.417121, -0.417121, 0.834707, 53.668297, 97.380526)" fill="none" stroke-linejoin="miter" d="M 0.00220863 1.999904 L 35.113865 1.998358 " stroke="#ffffff" stroke-width="4" stroke-opacity="1" stroke-miterlimit="4"/><g clip-path="url(#590d9103ea)"><path stroke-linecap="butt" transform="matrix(0.0459634, 0.931994, -0.931994, 0.0459634, 145.77977, 3.740707)" fill="none" stroke-linejoin="miter" d="M -0.000736268 2.001808 L 94.160586 2.001651 " stroke="#ffffff" stroke-width="4" stroke-opacity="1" stroke-miterlimit="4"/></g><path stroke-linecap="butt" transform="matrix(0.605607, 0.709906, -0.709906, 0.605607, 24.5326, 63.003942)" fill="none" stroke-linejoin="miter" d="M 0.000087944 1.999381 L 49.075094 2.001383 " stroke="#ffffff" stroke-width="4" stroke-opacity="1" stroke-miterlimit="4"/><path stroke-linecap="butt" transform="matrix(0.779837, -0.512426, 0.512426, 0.779837, 113.752553, 143.651664)" fill="none" stroke-linejoin="miter" d="M 0.000181261 1.999606 L 50.184979 2.001079 " stroke="#ffffff" stroke-width="4" stroke-opacity="1" stroke-miterlimit="4"/><path stroke-linecap="butt" transform="matrix(0.783843, 0.506278, -0.506278, 0.783843, 136.647986, 106.350073)" fill="none" stroke-linejoin="miter" d="M -0.00161659 0.999637 L 25.928302 1.001127 " stroke="#ffffff" stroke-width="2" stroke-opacity="1" stroke-miterlimit="4"/><path stroke-linecap="butt" transform="matrix(-0.860693, 0.360462, -0.360462, -0.860693, 150.101635, 91.992082)" fill="none" stroke-linejoin="miter" d="M 0.00130144 2.001898 L 20.697231 2.000923 " stroke="#ffffff" stroke-width="4" stroke-opacity="1" stroke-miterlimit="4"/><g clip-path="url(#505157011c)"><path stroke-linecap="butt" transform="matrix(-0.511563, 0.780403, -0.780403, -0.511563, 76.69378, 146.243633)" fill="none" stroke-linejoin="miter" d="M -0.00147906 2.001176 L 59.126332 1.999219 " stroke="#ffffff" stroke-width="4" stroke-opacity="1" stroke-miterlimit="4"/></g><path stroke-linecap="butt" transform="matrix(0.933127, 0.000000000000000604, -0.000000000000000604, 0.933127, 75.143925, 143.348326)" fill="none" stroke-linejoin="miter" d="M 0.000649637 2.000283 L 43.88451 2.000283 " stroke="#ffffff" stroke-width="4" stroke-opacity="1" stroke-miterlimit="4"/><path stroke-linecap="butt" transform="matrix(-0.9292, 0.0855177, -0.0855177, -0.9292, 130.596595, 99.588273)" fill="none" stroke-linejoin="miter" d="M -0.000178531 1.999342 L 15.428168 1.998357 " stroke="#ffffff" stroke-width="4" stroke-opacity="1" stroke-miterlimit="4"/><path stroke-linecap="butt" transform="matrix(0.856799, -0.369624, 0.369624, 0.856799, 81.404772, 111.981952)" fill="none" stroke-linejoin="miter" d="M 0.00060257 1.999984 L 39.625078 1.997342 " stroke="#ffffff" stroke-width="4" stroke-opacity="1" stroke-miterlimit="4"/><g clip-path="url(#f03cbddb33)"><path stroke-linecap="butt" transform="matrix(0.491727, 0.793052, -0.793052, 0.491727, 172.554151, 96.750916)" fill="none" stroke-linejoin="miter" d="M 0.000402012 1.999363 L 15.525039 2.000708 " stroke="#ffffff" stroke-width="4" stroke-opacity="1" stroke-miterlimit="4"/></g><g clip-path="url(#c0c3f754f5)"><path stroke-linecap="butt" transform="matrix(0.933127, 0.000000000000000785, -0.000000000000000785, 0.933127, 153.914154, 117.63246)" fill="none" stroke-linejoin="miter" d="M -0.0000981129 2.001378 L 33.795038 2.001378 " stroke="#ffffff" stroke-width="4" stroke-opacity="1" stroke-miterlimit="4"/></g><g clip-path="url(#f5204ce63d)"><path stroke-linecap="butt" transform="matrix(0.519433, 0.775188, -0.775188, 0.519433, 180.155301, 109.007172)" fill="none" stroke-linejoin="miter" d="M 0.00106915 2.000016 L 13.177759 2.000861 " stroke="#ffffff" stroke-width="4" stroke-opacity="1" stroke-miterlimit="4"/></g><g clip-path="url(#3a0906320f)"><path stroke-linecap="butt" transform="matrix(0.864331, 0.35165, -0.35165, 0.864331, 150.092517, 87.983657)" fill="none" stroke-linejoin="miter" d="M 0.00083809 1.998059 L 24.966866 2.000322 " stroke="#ffffff" stroke-width="4" stroke-opacity="1" stroke-miterlimit="4"/></g><path stroke-linecap="butt" transform="matrix(0.596187, -0.717835, 0.717835, 0.596187, 59.421692, 138.132771)" fill="none" stroke-linejoin="miter" d="M -0.000533539 1.997805 L 35.704826 2.000588 " stroke="#ffffff" stroke-width="4" stroke-opacity="1" stroke-miterlimit="4"/><g clip-path="url(#4ddfc2b117)"><path stroke-linecap="butt" transform="matrix(-0.842835, 0.400444, -0.400444, -0.842835, 61.653505, 141.012388)" fill="none" stroke-linejoin="miter" d="M 0.00166722 1.999123 L 71.162309 1.998874 " stroke="#ffffff" stroke-width="4" stroke-opacity="1" stroke-miterlimit="4"/></g><g clip-path="url(#2b417184fb)"><path stroke-linecap="butt" transform="matrix(0.822902, 0.439952, -0.439952, 0.822902, 1.759435, 166.177666)" fill="none" stroke-linejoin="miter" d="M -0.000211942 2.001022 L 53.49123 1.998071 " stroke="#ffffff" stroke-width="4" stroke-opacity="1" stroke-miterlimit="4"/></g><path stroke-linecap="butt" transform="matrix(0.933127, -0.00000000000000081, 0.00000000000000081, 0.933127, 23.11468, 63.27793)" fill="none" stroke-linejoin="miter" d="M -0.00149851 0.999872 L 68.342288 0.999872 " stroke="#ffffff" stroke-width="2" stroke-opacity="1" stroke-miterlimit="4"/><path stroke-linecap="butt" transform="matrix(0.906441, 0.221566, -0.221566, 0.906441, 23.336048, 63.306256)" fill="none" stroke-linejoin="miter" d="M -0.00169705 0.998475 L 82.92109 1.000812 " stroke="#ffffff" stroke-width="2" stroke-opacity="1" stroke-miterlimit="4"/><path stroke-linecap="butt" transform="matrix(0.878528, -0.314508, 0.314508, 0.878528, 52.519495, 98.16894)" fill="none" stroke-linejoin="miter" d="M 0.00216583 1.000101 L 55.385771 1.000818 " stroke="#ffffff" stroke-width="2" stroke-opacity="1" stroke-miterlimit="4"/><path stroke-linecap="butt" transform="matrix(-0.93034, 0.0720622, -0.0720622, -0.93034, 86.951634, 35.050047)" fill="none" stroke-linejoin="miter" d="M 0.000826349 0.998573 L 45.132805 1.001057 " stroke="#ffffff" stroke-width="2" stroke-opacity="1" stroke-miterlimit="4"/><path stroke-linecap="butt" transform="matrix(-0.618721, -0.698506, 0.698506, -0.618721, 86.187858, 34.737781)" fill="none" stroke-linejoin="miter" d="M 0.0012496 1.001615 L 33.203078 1.001178 " stroke="#ffffff" stroke-width="2" stroke-opacity="1" stroke-miterlimit="4"/><path stroke-linecap="butt" transform="matrix(0.933127, 0.0000000000000004, -0.0000000000000004, 0.933127, 52.834275, 98.115878)" fill="none" stroke-linejoin="miter" d="M 0.00178213 1.001903 L 66.382244 1.001903 " stroke="#ffffff" stroke-width="2" stroke-opacity="1" stroke-miterlimit="4"/><g clip-path="url(#9a0ed65abe)"><path stroke-linecap="butt" transform="matrix(0.227948, -0.904857, 0.904857, 0.227948, 129.524462, 57.133446)" fill="none" stroke-linejoin="miter" d="M -0.0018651 1.000877 L 59.161841 0.998804 " stroke="#ffffff" stroke-width="2" stroke-opacity="1" stroke-miterlimit="4"/></g><path stroke-linecap="butt" transform="matrix(-0.335608, 0.870686, -0.870686, -0.335608, 131.300421, 57.316845)" fill="none" stroke-linejoin="miter" d="M -0.000749629 1.000344 L 24.441278 1.000561 " stroke="#ffffff" stroke-width="2" stroke-opacity="1" stroke-miterlimit="4"/><path stroke-linecap="butt" transform="matrix(0.913708, -0.189379, 0.189379, 0.913708, 130.242476, 56.064827)" fill="none" stroke-linejoin="miter" d="M 0.0014043 1.002407 L 19.496894 0.998822 " stroke="#ffffff" stroke-width="2" stroke-opacity="1" stroke-miterlimit="4"/><path stroke-linecap="butt" transform="matrix(0.493524, 0.791935, -0.791935, 0.493524, 115.569475, 29.91925)" fill="none" stroke-linejoin="miter" d="M 0.00106057 1.00091 L 34.035607 1.000894 " stroke="#ffffff" stroke-width="2" stroke-opacity="1" stroke-miterlimit="4"/><path stroke-linecap="butt" transform="matrix(0.908966, -0.210967, 0.210967, 0.908966, 135.931098, 106.223166)" fill="none" stroke-linejoin="miter" d="M -0.00166783 1.000362 L 38.315138 0.997775 " stroke="#ffffff" stroke-width="2" stroke-opacity="1" stroke-miterlimit="4"/><path stroke-linecap="butt" transform="matrix(0.546544, -0.756317, 0.756317, 0.546544, 135.383373, 106.581318)" fill="none" stroke-linejoin="miter" d="M -0.000320794 1.001467 L 21.029435 0.999492 " stroke="#ffffff" stroke-width="2" stroke-opacity="1" stroke-miterlimit="4"/><path stroke-linecap="butt" transform="matrix(-0.456544, 0.813814, -0.813814, -0.456544, 136.946736, 107.594507)" fill="none" stroke-linejoin="miter" d="M -0.00110621 1.000754 L 46.793146 1.000315 " stroke="#ffffff" stroke-width="2" stroke-opacity="1" stroke-miterlimit="4"/><path stroke-linecap="butt" transform="matrix(-0.896539, 0.258735, -0.258735, -0.896539, 136.395213, 108.029899)" fill="none" stroke-linejoin="miter" d="M -0.000410973 1.000492 L 68.039393 0.99917 " stroke="#ffffff" stroke-width="2" stroke-opacity="1" stroke-miterlimit="4"/><path stroke-linecap="butt" transform="matrix(0.927254, 0.104526, -0.104526, 0.927254, 75.248404, 123.809698)" fill="none" stroke-linejoin="miter" d="M 0.000855307 1.001336 L 50.780442 0.997984 " stroke="#ffffff" stroke-width="2" stroke-opacity="1" stroke-miterlimit="4"/><path stroke-linecap="butt" transform="matrix(0.905862, -0.223921, 0.223921, 0.905862, 60.633437, 144.307015)" fill="none" stroke-linejoin="miter" d="M -0.00146669 0.997497 L 67.750824 1.001016 " stroke="#ffffff" stroke-width="2" stroke-opacity="1" stroke-miterlimit="4"/><path stroke-linecap="butt" transform="matrix(0.00000000162861, -0.933127, 0.933127, 0.00000000162861, 60.384415, 145.207996)" fill="none" stroke-linejoin="miter" d="M 0.00103389 0.500626 L 6.309627 0.500626 " stroke="#ffffff" stroke-width="1" stroke-opacity="1" stroke-miterlimit="4"/><path stroke-linecap="butt" transform="matrix(0.933127, 0.000000000000022519, -0.000000000000022519, 0.933127, 60.857573, 147.107111)" fill="none" stroke-linejoin="miter" d="M 0.00193135 0.500583 L 15.310839 0.500583 " stroke="#ffffff" stroke-width="1" stroke-opacity="1" stroke-miterlimit="4"/><g clip-path="url(#7dd208272a)"><path stroke-linecap="butt" transform="matrix(-0.627702, 0.690446, -0.690446, -0.627702, 61.546219, 145.843085)" fill="none" stroke-linejoin="miter" d="M -0.000208155 1.000629 L 51.892463 1.002178 " stroke="#ffffff" stroke-width="2" stroke-opacity="1" stroke-miterlimit="4"/></g><g clip-path="url(#0d07701e79)"><path stroke-linecap="butt" transform="matrix(-0.817718, 0.449514, -0.449514, -0.817718, 66.782557, 160.942534)" fill="none" stroke-linejoin="miter" d="M 0.00104481 1.00035 L 46.543676 0.999993 " stroke="#ffffff" stroke-width="2" stroke-opacity="1" stroke-miterlimit="4"/></g><path stroke-linecap="butt" transform="matrix(-0.825003, 0.436, -0.436, -0.825003, 53.261018, 153.334416)" fill="none" stroke-linejoin="miter" d="M -0.0000442276 1.001917 L 48.822384 0.998918 " stroke="#ffffff" stroke-width="2" stroke-opacity="1" stroke-miterlimit="4"/><path stroke-linecap="butt" transform="matrix(-0.667816, 0.651727, -0.651727, -0.667816, 38.281072, 149.990993)" fill="none" stroke-linejoin="miter" d="M 0.00111721 0.99953 L 37.546683 1.000564 " stroke="#ffffff" stroke-width="2" stroke-opacity="1" stroke-miterlimit="4"/></g></g></svg>